<svg width="304" height="293" viewBox="0 0 304 293" fill="none" xmlns="http://www.w3.org/2000/svg">
<path d="M72.3795 137.755C72.5063 137.903 72.6373 138.045 72.7705 138.184C72.8145 138.23 72.8607 138.273 72.9048 138.317C72.9983 138.409 73.0928 138.5 73.1895 138.588C73.2432 138.637 73.2969 138.683 73.3517 138.73C73.4441 138.81 73.5376 138.887 73.6332 138.963C73.6891 139.007 73.7406 139.051 73.8018 139.094C73.9021 139.166 74.0031 139.238 74.1048 139.309C74.1574 139.346 74.2123 139.383 74.2638 139.417C74.3863 139.497 74.5098 139.573 74.6344 139.648L74.7419 139.711C74.9073 139.807 75.0738 139.896 75.2436 139.98L75.2887 140.001C75.442 140.073 75.597 140.143 75.7539 140.211C75.7979 140.23 75.843 140.247 75.8882 140.264C76.0171 140.317 76.1482 140.372 76.2792 140.411C76.3297 140.43 76.3802 140.446 76.4307 140.463C76.5618 140.506 76.6939 140.546 76.826 140.583C76.8733 140.596 76.9206 140.61 76.9679 140.622C77.1151 140.661 77.2633 140.696 77.4126 140.729L77.5061 140.75C78.0656 140.862 78.634 140.923 79.2046 140.934H79.2852C79.4474 140.934 79.6074 140.934 79.7718 140.926H79.8696C80.0329 140.917 80.1919 140.905 80.3573 140.888L80.4336 140.881C82.9047 140.613 85.1717 139.385 86.7463 137.461C101.521 119.433 133.64 77.6802 133.64 55.0454C133.64 25.7908 109.683 1.42968 79.5795 0.617503C76.7082 0.539593 73.835 0.680381 70.985 1.03864H70.9743C69.7668 1.19119 68.5714 1.38206 67.3882 1.61124L67.2808 1.63059C66.9585 1.69397 66.6362 1.76058 66.3139 1.82933L66.0066 1.89379C65.7101 1.95932 65.4147 2.02808 65.1203 2.09791L64.7519 2.18492C64.4661 2.25475 64.1824 2.32781 63.8988 2.39979C63.7699 2.43416 63.6399 2.46747 63.511 2.50722C63.2317 2.58242 62.9535 2.6587 62.6752 2.7382L62.2863 2.84563C62.0077 2.92728 61.7305 3.01107 61.4547 3.09701C61.3312 3.13461 61.2088 3.17437 61.0863 3.21305C60.8037 3.30329 60.5223 3.39353 60.2419 3.48807L59.9196 3.5955C59.6252 3.69648 59.3298 3.79854 59.0365 3.9049L58.8495 3.97366C57.4551 4.48503 56.0886 5.0494 54.75 5.66678L54.4803 5.79032C54.216 5.91387 53.955 6.04064 53.6928 6.16848C53.5747 6.22542 53.4565 6.28236 53.3383 6.34145C53.0898 6.46464 52.8423 6.58997 52.596 6.71746L52.2168 6.91405C51.9754 7.04082 51.7354 7.16938 51.4969 7.29973C51.367 7.36956 51.238 7.44046 51.1091 7.51459C50.8735 7.64494 50.6393 7.77709 50.4065 7.91102L50.023 8.1334C49.7899 8.26983 49.5567 8.40736 49.3258 8.54702L48.9616 8.77047C48.7274 8.9155 48.4921 9.05945 48.26 9.20771L47.9378 9.41506C47.6939 9.57406 47.4489 9.73735 47.2061 9.8942L47.0579 9.99519C46.1984 10.5746 45.3583 11.1769 44.5376 11.8022C44.4377 11.8774 44.3377 11.9515 44.2378 12.0289C44.0294 12.1889 43.8242 12.3512 43.6179 12.5166C43.4955 12.6144 43.3719 12.711 43.2505 12.8088C43.0561 12.9667 42.8638 13.1311 42.6715 13.2858L42.2815 13.6081C42.0956 13.766 41.9109 13.9304 41.7271 14.0862L41.3329 14.4321C41.1535 14.5922 40.9751 14.7544 40.7957 14.9145L40.4025 15.2776C40.2285 15.4398 40.0544 15.5999 39.8826 15.7664C39.7522 15.891 39.6229 16.0164 39.4947 16.1424C39.325 16.3079 39.1542 16.4733 38.9866 16.6409C38.8598 16.7687 38.7341 16.8976 38.6073 17.0266C38.4419 17.1963 38.2754 17.365 38.111 17.5369C37.9886 17.6647 37.8682 17.7958 37.7468 17.9258C37.5825 18.1009 37.417 18.276 37.2558 18.4533C37.1742 18.5424 37.0958 18.6337 37.0152 18.7229C36.68 19.0968 36.3498 19.4749 36.0247 19.8574C35.9001 20.0046 35.7733 20.1507 35.6498 20.2989C35.5101 20.4665 35.3737 20.6373 35.2361 20.8071C35.0986 20.9768 34.9805 21.1208 34.8548 21.2787C34.7291 21.4366 34.5894 21.6193 34.4573 21.7901C34.3251 21.9609 34.207 22.1124 34.0834 22.2778C33.9599 22.4433 33.8277 22.6205 33.701 22.7924C33.5742 22.9643 33.4549 23.1287 33.3335 23.2973C33.2121 23.466 33.0886 23.6411 32.9672 23.8141C32.8458 23.987 32.7266 24.1611 32.6073 24.3351C32.4881 24.5092 32.3721 24.681 32.256 24.8562C32.14 25.0313 32.0197 25.2139 31.9026 25.3933C31.7855 25.5727 31.6791 25.7382 31.5684 25.9133C31.4578 26.0884 31.3353 26.2871 31.2193 26.4762C31.1118 26.646 31.0044 26.8168 30.9067 26.9887C30.7853 27.1906 30.6671 27.3958 30.5478 27.6C30.4554 27.76 30.3599 27.9223 30.2686 28.0802C30.1246 28.3348 29.9839 28.5926 29.8388 28.8505C29.7529 29.0084 29.6658 29.1652 29.582 29.3242C29.4109 29.6458 29.2429 29.9681 29.0782 30.2911C29.003 30.4404 28.9299 30.5908 28.8558 30.7413C28.7419 30.9712 28.628 31.2021 28.5174 31.4342C28.4379 31.6018 28.3616 31.7704 28.2832 31.938C28.1822 32.1529 28.0812 32.3753 27.9824 32.5955C27.905 32.7696 27.8298 32.9447 27.7536 33.1198C27.659 33.3346 27.5656 33.5495 27.4742 33.773C27.4001 33.9502 27.3281 34.1286 27.2594 34.3101C27.1713 34.525 27.0832 34.7495 26.9972 34.9708C26.9256 35.1492 26.8569 35.3282 26.791 35.508C26.7072 35.7314 26.6245 35.957 26.5428 36.1816C26.4784 36.3599 26.4146 36.539 26.3516 36.7187C26.271 36.9508 26.1926 37.185 26.1141 37.4192C26.0561 37.5932 25.9985 37.7673 25.9412 37.9413C25.8617 38.1895 25.7854 38.4398 25.7091 38.6933C25.6597 38.8555 25.6092 39.0156 25.5609 39.18C25.4749 39.4743 25.3922 39.7709 25.3106 40.0674C25.2772 40.1877 25.2429 40.3059 25.2096 40.4273C25.0986 40.8434 24.9911 41.2613 24.8873 41.681C24.8615 41.7884 24.8389 41.8958 24.8132 42.0033C24.739 42.3181 24.666 42.6339 24.5983 42.9508C24.5639 43.1109 24.5317 43.2731 24.4995 43.4343C24.4447 43.7007 24.392 43.9714 24.3394 44.2357C24.3061 44.413 24.2749 44.5902 24.2427 44.7729C24.1976 45.0285 24.1525 45.2832 24.1106 45.5399C24.0805 45.7236 24.0526 45.9084 24.0246 46.0921C23.986 46.3449 23.9501 46.5978 23.9172 46.8506C23.8914 47.0389 23.8667 47.2269 23.8431 47.4146C23.8108 47.6681 23.7807 47.9217 23.7528 48.1752C23.7313 48.3643 23.7109 48.5523 23.6916 48.7414C23.6658 48.9992 23.6422 49.2592 23.6196 49.5181C23.6035 49.704 23.5874 49.8887 23.5734 50.0746C23.553 50.3442 23.5358 50.6118 23.5197 50.8868C23.5089 51.063 23.4971 51.2391 23.4885 51.4153C23.4735 51.7151 23.4627 52.0148 23.4531 52.3145C23.4477 52.4649 23.4402 52.6143 23.437 52.7636C23.4248 53.2148 23.4187 53.6667 23.4187 54.1194C23.4224 55.2662 23.4959 56.4118 23.6389 57.5497C25.0226 68.8396 32.7394 83.5728 42.0097 97.7419C42.5662 98.5928 43.1277 99.4411 43.6942 100.287C44.2357 101.093 44.78 101.898 45.3272 102.7C46.3249 104.159 47.3318 105.605 48.3481 107.038C49.0242 107.992 49.7018 108.938 50.3808 109.876C50.8599 110.54 51.3398 111.199 51.8203 111.852C52.2178 112.393 52.6146 112.931 53.0107 113.463C53.4898 114.108 53.9689 114.753 54.447 115.391C55.7963 117.188 57.1314 118.937 58.4521 120.64C58.9226 121.247 59.3899 121.844 59.854 122.437C64.5885 128.47 68.961 133.741 72.3795 137.755Z" fill="url(#paint0_linear_73_161)"/>
<path d="M79.5817 152.836C73.3507 152.995 68.2788 158.082 68.2788 164.198C68.2788 170.314 73.3507 175.105 79.5817 174.9C85.7869 174.696 90.7975 169.61 90.7975 163.541C90.7975 157.473 85.7869 152.679 79.5817 152.836Z" fill="url(#paint1_linear_73_161)"/>
<path d="M138.251 55.088C138.251 77.6862 106.236 119.371 91.5096 137.369C87.8225 141.881 80.9029 142.027 77.1879 137.658C62.1615 119.987 28.4033 77.6336 28.4033 54.1641C28.4033 23.8309 53.7238 -0.076894 84.3664 0.750327C114.375 1.56036 138.251 25.8818 138.251 55.088Z" fill="#5D3891"/>
<path d="M121.578 53.7158C121.578 74.1278 104.837 90.7431 83.9135 90.828C62.684 90.9139 45.2446 73.9967 45.2446 53.0411C45.2446 32.0856 62.6893 15.4702 83.9135 15.9333C104.837 16.3877 121.578 33.3038 121.578 53.7158Z" fill="white"/>
<path d="M95.5459 163.403C95.5459 169.462 90.5514 174.538 84.3666 174.742C78.1549 174.948 73.1013 170.164 73.1013 164.057C73.1013 157.951 78.1506 152.873 84.3666 152.715C90.5514 152.558 95.5459 157.344 95.5459 163.403Z" fill="#5D3891"/>
<mask id="mask0_73_161" style="mask-type:luminance" maskUnits="userSpaceOnUse" x="48" y="22" width="71" height="69">
<path d="M118.135 57.1705C118.135 75.7164 102.914 90.7965 83.9134 90.8545C64.6606 90.9136 48.865 75.5627 48.865 56.5689C48.865 37.575 64.6574 22.4981 83.9134 22.8913C102.914 23.2824 118.135 38.6278 118.135 57.1705Z" fill="white"/>
</mask>
<g mask="url(#mask0_73_161)">
<path d="M79.4485 54.6991C79.4485 62.4718 75.1351 68.7533 69.7957 68.7286C64.4371 68.7039 60.0786 62.3407 60.0786 54.5165C60.0786 46.6923 64.4371 40.4107 69.7957 40.487C75.1351 40.5579 79.4485 46.92 79.4485 54.6991Z" fill="#5D3891"/>
<path d="M72.036 66.1624L67.5411 66.1377C67.1479 81.856 66.7536 97.8632 66.3594 113.975C66.3368 114.93 66.7085 115.607 67.3918 116.281C68.075 116.956 69.0108 117.209 69.9873 117.198C70.8607 117.187 71.6955 116.768 72.3036 116.155C72.9116 115.541 73.2436 115.166 73.2221 114.315C72.8289 98.1168 72.4335 81.856 72.036 66.1624Z" fill="#5D3891"/>
<path d="M106.34 41.5703L103.94 41.5542V58.1889L102.054 58.1728V41.5413L100.169 41.5284V58.1567L96.7751 58.1309V41.4855L94.8897 41.4436V58.1191L91.873 58.0933V41.378L90.5043 41.3447C90.5043 41.3447 88.5576 56.6397 88.9251 63.7474C88.9713 64.6197 89.5514 65.4513 90.2755 66.0754C91.6183 67.2335 94.3471 68.8343 98.755 68.8547C103.107 68.874 105.757 67.3055 107.086 66.1689C107.419 65.883 107.689 65.531 107.878 65.1351C108.067 64.7393 108.172 64.3084 108.185 63.8699C108.55 56.8181 106.34 41.5703 106.34 41.5703Z" fill="#5D3891"/>
<path d="M100.968 66.3195L96.5637 66.2959C96.178 81.8573 95.7923 97.7056 95.4055 113.657C95.383 114.602 95.7472 115.268 96.4176 115.941C97.0879 116.614 98.0043 116.86 98.9615 116.848C99.821 116.837 100.635 116.427 101.233 115.815C101.83 115.204 102.153 114.837 102.133 113.994C101.744 97.957 101.356 81.8573 100.968 66.3195Z" fill="#5D3891"/>
</g>
<path d="M172.592 34.142C163.467 111.256 154.343 187.564 145.218 263.069C144.809 266.454 147.152 269.448 150.42 269.729C187.09 273.208 223.76 276.763 260.43 280.394C266.97 280.716 270.562 277.056 270.984 273.397C280.375 191.892 289.767 109.532 299.157 26.3157C299.579 22.5781 296.413 19.3659 289.871 19.685C253.022 22.3128 216.173 24.9054 179.324 27.463C176.029 27.6779 173 30.6827 172.592 34.142Z" fill="#26264F"/>
<path d="M167.497 33.9843C158.316 111.434 149.135 188.068 139.954 263.887C139.542 267.284 141.894 270.296 145.188 270.576C183.264 273.799 221.34 277.088 259.416 280.443C262.891 280.751 266.085 277.998 266.506 274.319C275.96 192.438 285.41 109.694 294.857 26.0859C295.282 22.3334 292.762 19.452 289.264 19.6895C250.933 22.2463 212.601 24.7724 174.268 27.2677C170.955 27.4933 167.91 30.5132 167.497 33.9843Z" fill="url(#paint2_linear_73_161)"/>
<path d="M169.71 46.6542C161.206 118.41 152.702 189.467 144.197 259.825C143.813 263.005 146.012 265.813 149.089 266.063C184.899 268.992 220.71 271.976 256.52 275.017C259.755 275.294 262.73 272.718 263.125 269.301C271.863 193.67 280.601 117.303 289.338 40.2008C289.733 36.7125 287.388 34.0117 284.133 34.2051C248.102 36.3036 212.07 38.3806 176.038 40.4361C172.939 40.6112 170.094 43.413 169.71 46.6542Z" fill="white"/>
<path d="M228.039 30.9753C227.895 32.2226 228.733 33.1787 229.912 33.11C231.092 33.0412 232.168 31.9658 232.312 30.7121C232.456 29.4584 231.617 28.5022 230.437 28.5796C229.256 28.6569 228.184 29.7259 228.039 30.9753Z" fill="#DE8BDF"/>
<g style="mix-blend-mode:multiply" opacity="0.4">
<path d="M186.149 135.987C188.822 141.771 197.869 146.3 209.151 146.567L222.365 146.872C233.929 147.139 244.212 142.929 248.132 137.102C248.436 136.651 248.347 136.047 247.866 135.652C247.26 135.176 246.515 134.912 245.745 134.9L188.774 133.933C188.015 133.931 187.273 134.162 186.649 134.593C186.135 134.96 185.943 135.54 186.149 135.987Z" fill="url(#paint3_linear_73_161)"/>
<path d="M189.015 109.811C193.097 100.557 203.132 93.9533 214.368 93.9114L227.533 93.8673C239.052 93.8297 248.318 100.553 250.888 110.097C251.086 110.838 250.894 111.386 250.33 112.014C249.766 112.641 248.946 112.747 248.085 112.742L191.191 112.399C190.377 112.399 189.624 112.28 189.203 111.669C188.782 111.057 188.699 110.527 189.015 109.811Z" fill="url(#paint4_linear_73_161)"/>
<path d="M250.365 119.175C250.22 120.85 248.705 122.076 246.973 122.058L191.216 121.467C189.58 121.449 188.369 120.231 188.522 118.608C188.675 116.984 190.113 115.792 191.745 115.804L247.481 116.234C249.213 116.246 250.511 117.498 250.366 119.173L250.365 119.175Z" fill="url(#paint5_linear_73_161)"/>
<path d="M239.079 130.765C236.148 130.721 234.782 129.287 233.578 128.025C232.492 126.887 231.556 125.905 229.47 125.876C227.383 125.847 226.284 126.803 225.008 127.907C223.595 129.126 222 130.507 219.114 130.464C216.229 130.421 214.905 129.002 213.729 127.752C212.668 126.625 211.754 125.653 209.71 125.628C207.665 125.603 206.584 126.545 205.328 127.638C203.939 128.845 202.366 130.216 199.54 130.171C196.715 130.126 195.418 128.724 194.269 127.485C193.233 126.37 192.335 125.408 190.333 125.382C190.209 125.383 190.086 125.357 189.972 125.307C189.858 125.257 189.756 125.183 189.673 125.091C189.59 124.998 189.527 124.889 189.489 124.771C189.451 124.652 189.439 124.527 189.453 124.403C189.482 124.141 189.607 123.9 189.803 123.724C189.999 123.548 190.253 123.45 190.516 123.449C193.309 123.481 194.613 124.879 195.762 126.113C196.801 127.231 197.696 128.197 199.721 128.226C201.746 128.255 202.828 127.312 204.08 126.222C205.469 125.012 207.044 123.644 209.889 123.674C212.734 123.704 214.072 125.119 215.247 126.366C216.31 127.494 217.23 128.469 219.292 128.498C221.353 128.527 222.457 127.577 223.731 126.476C225.143 125.255 226.745 123.869 229.646 123.904C232.547 123.938 233.917 125.363 235.125 126.623C236.214 127.763 237.155 128.748 239.259 128.778C241.362 128.808 242.482 127.847 243.781 126.737C245.217 125.504 246.847 124.106 249.805 124.14C249.936 124.137 250.065 124.162 250.185 124.212C250.306 124.263 250.414 124.338 250.503 124.433C250.593 124.528 250.661 124.641 250.704 124.764C250.746 124.887 250.763 125.018 250.752 125.148C250.72 125.421 250.588 125.673 250.381 125.855C250.174 126.036 249.908 126.135 249.632 126.132C247.508 126.105 246.387 127.068 245.088 128.18C243.646 129.414 242.02 130.808 239.079 130.765Z" fill="url(#paint6_linear_73_161)"/>
<path d="M255.875 224.658C255.63 227.536 252.965 229.714 249.93 229.522L170.179 224.465C167.385 224.288 165.344 221.915 165.606 219.166L165.831 216.832C166.095 214.086 168.565 211.991 171.356 212.15L251.028 216.698C254.06 216.871 256.326 219.339 256.078 222.214L255.875 224.658Z" fill="url(#paint7_linear_73_161)"/>
<path d="M260.185 173.894C260.427 171.054 258.169 168.671 255.149 168.57L175.774 165.922C172.993 165.829 170.534 167.953 170.273 170.667L167.67 197.723C167.407 200.457 169.448 202.793 172.236 202.938L251.85 207.106C254.878 207.265 257.537 205.072 257.781 202.209L260.185 173.894ZM226.409 177.44L213.644 197.726C213.354 198.183 212.953 198.558 212.477 198.815C212.002 199.073 211.468 199.205 210.927 199.198H210.82C210.313 199.179 209.821 199.026 209.392 198.755C208.964 198.483 208.615 198.104 208.381 197.654L200.686 182.528C199.97 181.122 200.588 179.362 202.066 178.593C203.544 177.825 205.329 178.34 206.049 179.747L211.42 190.237L221.251 174.579C222.138 173.169 224.009 172.663 225.434 173.45C226.858 174.236 227.299 176.021 226.414 177.435L226.409 177.44Z" fill="url(#paint8_linear_73_161)"/>
</g>
<path d="M184.952 135.987C187.625 141.771 196.672 146.3 207.954 146.567L221.168 146.872C232.732 147.139 243.015 142.929 246.936 137.102C247.239 136.651 247.151 136.047 246.669 135.652C246.063 135.176 245.318 134.912 244.548 134.9L187.577 133.933C186.818 133.931 186.076 134.162 185.452 134.593C184.938 134.96 184.746 135.54 184.952 135.987Z" fill="#5D3891"/>
<path d="M187.818 109.811C191.9 100.557 201.935 93.9533 213.172 93.9114L226.336 93.8673C237.855 93.8297 247.121 100.553 249.691 110.097C249.89 110.838 249.697 111.386 249.133 112.014C248.569 112.641 247.749 112.747 246.888 112.742L189.995 112.405C189.181 112.405 188.428 112.285 188.007 111.674C187.586 111.063 187.502 110.527 187.818 109.811Z" fill="#5D3891"/>
<path d="M249.169 119.175C249.024 120.85 247.509 122.076 245.776 122.058L190.019 121.467C188.383 121.449 187.172 120.231 187.326 118.608C187.478 116.984 188.917 115.792 190.549 115.804L246.283 116.234C248.016 116.246 249.315 117.498 249.169 119.173V119.175Z" fill="#5D3891"/>
<path d="M237.883 130.765C234.952 130.721 233.586 129.287 232.381 128.025C231.295 126.887 230.359 125.905 228.273 125.876C226.187 125.847 225.088 126.803 223.811 127.907C222.399 129.126 220.803 130.507 217.918 130.464C215.032 130.421 213.709 129.002 212.532 127.752C211.473 126.625 210.558 125.653 208.513 125.628C206.469 125.603 205.387 126.545 204.131 127.638C202.742 128.845 201.169 130.216 198.344 130.171C195.518 130.126 194.222 128.724 193.072 127.485C192.036 126.37 191.138 125.408 189.137 125.382C189.012 125.383 188.889 125.357 188.776 125.307C188.662 125.257 188.56 125.183 188.477 125.09C188.393 124.998 188.331 124.889 188.293 124.77C188.255 124.652 188.242 124.527 188.256 124.403C188.285 124.141 188.41 123.9 188.606 123.724C188.802 123.548 189.056 123.45 189.319 123.449C192.113 123.481 193.416 124.879 194.565 126.113C195.604 127.231 196.499 128.197 198.524 128.226C200.549 128.255 201.631 127.312 202.884 126.222C204.273 125.012 205.848 123.644 208.693 123.674C211.537 123.704 212.875 125.119 214.051 126.366C215.114 127.494 216.033 128.469 218.095 128.498C220.157 128.527 221.26 127.577 222.534 126.476C223.947 125.255 225.549 123.869 228.449 123.904C231.35 123.938 232.721 125.363 233.928 126.623C235.018 127.763 235.959 128.748 238.062 128.778C240.166 128.808 241.285 127.847 242.584 126.737C244.02 125.504 245.65 124.106 248.609 124.14C248.739 124.137 248.869 124.162 248.989 124.212C249.109 124.263 249.217 124.338 249.307 124.433C249.396 124.528 249.464 124.641 249.507 124.764C249.55 124.887 249.566 125.018 249.555 125.148C249.523 125.421 249.391 125.672 249.185 125.854C248.978 126.036 248.712 126.135 248.437 126.132C246.312 126.105 245.19 127.068 243.891 128.18C242.45 129.414 240.823 130.808 237.883 130.765Z" fill="#5D3891"/>
<path d="M254.678 224.658C254.433 227.536 251.768 229.714 248.733 229.522L168.982 224.465C166.188 224.288 164.147 221.915 164.409 219.166L164.634 216.832C164.898 214.086 167.369 211.991 170.159 212.15L249.835 216.698C252.865 216.871 255.131 219.339 254.884 222.214L254.678 224.658Z" fill="#5D3891"/>
<path d="M258.989 173.894C259.231 171.054 256.973 168.671 253.954 168.57L174.578 165.922C171.798 165.829 169.338 167.953 169.077 170.667L166.474 197.723C166.21 200.457 168.252 202.793 171.039 202.938L250.654 207.106C253.682 207.265 256.341 205.072 256.585 202.209L258.989 173.894ZM225.213 177.44L212.449 197.722C212.159 198.178 211.758 198.553 211.282 198.811C210.807 199.069 210.274 199.2 209.733 199.193C209.697 199.193 209.662 199.193 209.626 199.193C209.119 199.174 208.626 199.021 208.198 198.75C207.77 198.479 207.421 198.099 207.187 197.65L199.492 182.523C198.776 181.118 199.394 179.357 200.872 178.589C202.35 177.821 204.135 178.336 204.856 179.743L210.227 190.232L220.055 174.579C220.941 173.169 222.813 172.663 224.237 173.45C225.662 174.236 226.102 176.021 225.213 177.435V177.44Z" fill="#5D3891"/>
<path d="M146.916 201.687L142.296 195.993L137.668 200.225C136.584 201.216 135.901 202.569 135.746 204.029C135.591 205.489 135.975 206.956 136.827 208.152L138.873 211.028L145.964 208.094L147.34 204.102C147.48 203.697 147.515 203.262 147.441 202.84C147.366 202.417 147.186 202.02 146.916 201.687Z" fill="#FCCF97"/>
<path d="M156.67 190.075C156.67 195.147 155.274 199.432 151.299 200.84C150.303 201.179 149.256 201.344 148.205 201.329C141.834 201.329 136.672 196.29 136.672 190.076C136.672 183.945 141.694 178.965 147.943 178.827C148.03 178.827 148.118 178.827 148.205 178.827C154.574 178.823 156.67 183.859 156.67 190.075Z" fill="#FCCF97"/>
<path d="M51.5981 292.065C62.5343 292.065 71.3999 283.2 71.3999 272.264C71.3999 261.327 62.5343 252.462 51.5981 252.462C40.6619 252.462 31.7964 261.327 31.7964 272.264C31.7964 283.2 40.6619 292.065 51.5981 292.065Z" fill="#5D3891"/>
<path d="M51.5978 285.928C59.1443 285.928 65.262 279.81 65.262 272.264C65.262 264.717 59.1443 258.6 51.5978 258.6C44.0513 258.6 37.9336 264.717 37.9336 272.264C37.9336 279.81 44.0513 285.928 51.5978 285.928Z" fill="white"/>
<g style="mix-blend-mode:multiply">
<path d="M51.4149 279.109C54.9589 279.109 57.8318 276.236 57.8318 272.692C57.8318 269.148 54.9589 266.275 51.4149 266.275C47.871 266.275 44.998 269.148 44.998 272.692C44.998 276.236 47.871 279.109 51.4149 279.109Z" fill="#5D3891"/>
</g>
<path d="M32.1084 240.807C31.958 241.129 31.6873 241.323 31.5036 241.236L7.23697 229.938C7.05327 229.852 7.0221 229.52 7.17788 229.197C7.32828 228.874 7.599 228.68 7.78271 228.767L32.0493 240.067C32.233 240.152 32.2642 240.484 32.1084 240.808V240.807Z" fill="#816547"/>
<path d="M106.202 226.447H67.7361V232.481H106.202V226.447Z" fill="#816547"/>
<path d="M105.63 220.413H69.0645C67.0816 220.413 65.4741 222.021 65.4741 224.003V224.365C65.4741 226.348 67.0816 227.956 69.0645 227.956H105.63C107.613 227.956 109.22 226.348 109.22 224.365V224.003C109.22 222.021 107.613 220.413 105.63 220.413Z" fill="#FCCF97"/>
<path d="M33.9068 257.465C33.9068 257.465 23.5343 260.764 23.3613 272.3C23.3613 272.484 23.429 272.767 23.5579 272.898C23.6868 273.029 23.863 273.209 24.0478 273.209H27.7918C28.2494 273.209 28.6953 272.956 29.0637 272.686L46.5869 259.726L33.9068 257.465Z" fill="#816547"/>
<path d="M82.3952 268.292C81.0652 268.092 59.9055 268.449 52.1565 268.588C50.5869 268.616 49.2559 269.896 49.2559 271.466V272.643C49.2559 274.101 50.4151 275.329 51.8622 275.502L89.591 280.031L82.3952 268.292Z" fill="#FCCF97"/>
<path d="M177.007 292.065C187.943 292.065 196.809 283.2 196.809 272.264C196.809 261.327 187.943 252.462 177.007 252.462C166.071 252.462 157.205 261.327 157.205 272.264C157.205 283.2 166.071 292.065 177.007 292.065Z" fill="#5D3891"/>
<path d="M177.006 285.928C184.553 285.928 190.671 279.81 190.671 272.264C190.671 264.717 184.553 258.6 177.006 258.6C169.46 258.6 163.342 264.717 163.342 272.264C163.342 279.81 169.46 285.928 177.006 285.928Z" fill="white"/>
<g style="mix-blend-mode:multiply">
<path d="M176.823 279.109C180.367 279.109 183.24 276.236 183.24 272.692C183.24 269.148 180.367 266.275 176.823 266.275C173.279 266.275 170.406 269.148 170.406 272.692C170.406 276.236 173.279 279.109 176.823 279.109Z" fill="#5D3891"/>
</g>
<path d="M180.042 275.57C179.191 276.367 178.058 276.794 176.892 276.757C175.726 276.72 174.622 276.223 173.823 275.373L157.008 257.461C156.21 256.609 155.782 255.476 155.819 254.31C155.856 253.144 156.354 252.04 157.204 251.241L157.471 250.99C158.322 250.193 159.455 249.765 160.621 249.802C161.788 249.839 162.892 250.337 163.691 251.187L180.506 269.099C181.304 269.95 181.731 271.084 181.694 272.25C181.657 273.416 181.159 274.52 180.309 275.319L180.042 275.57Z" fill="#FCCF97"/>
<path d="M195.774 257.76C193.298 249.65 184.579 242.695 173.707 242.695C162.095 242.695 154.154 254.222 154.154 254.222L153.054 268.597L162.703 267.308C164.782 267.031 166.735 266.156 168.325 264.79L173.455 260.484C174.173 259.868 175.087 259.631 176.034 259.631H194.545C194.954 259.631 195.339 259.335 195.583 259.006C195.702 258.824 195.781 258.619 195.814 258.404C195.847 258.189 195.834 257.969 195.774 257.76Z" fill="#FCDEB9"/>
<path d="M172.974 235.503C173.157 240.362 157.934 268.154 155.739 269.072C153.544 269.989 146.938 279.998 135.021 279.998H91.7076C89.1701 279.998 86.7937 278.866 85.4293 276.728C81.9571 271.301 74.8914 261.326 69.5671 260.262C63.436 259.038 32.9706 255.673 23.1331 254.591C21.2917 254.386 19.9316 252.862 20.0337 251.013C20.3678 245.104 22.8978 233.235 37.6643 229.841H105.858C106.878 229.841 107.335 230.552 107.335 231.572V233.828C107.335 235.17 107.012 236.46 106.092 237.443C102.429 241.371 93.3384 251.978 97.3434 255.639C102.294 260.159 105.089 269.144 116.09 269.144C123.002 269.144 130.663 267.985 135.794 265.576C138.83 264.153 140.998 262.294 141.611 259.977C143.261 253.746 137.399 216.392 136.849 210.407C136.544 207.088 139.283 204.82 141.784 203.461H141.789C142.809 202.906 143.986 202.707 145.132 202.895C146.279 203.084 147.33 203.649 148.119 204.502C154.811 211.734 172.824 231.546 172.974 235.503Z" fill="#FCDEB9"/>
<g style="mix-blend-mode:multiply" opacity="0.5">
<path d="M149.018 255.645C141.928 262.851 136.305 267.248 136.305 267.248L135.817 265.58C138.853 264.156 141.009 262.297 141.618 259.98C143.268 253.749 137.401 216.395 136.851 210.41C136.547 207.092 139.283 204.824 141.784 203.465C141.622 203.608 137.827 207.077 141.784 216.648C145.841 226.427 156.106 248.44 149.018 255.645Z" fill="#FCCF97"/>
</g>
<path d="M137.503 266.232C137.503 266.983 137.205 267.702 136.675 268.233C136.144 268.763 135.425 269.061 134.675 269.061H106.391C105.641 269.061 104.921 268.763 104.391 268.233C103.861 267.702 103.562 266.983 103.562 266.232C103.562 265.482 103.861 264.763 104.391 264.232C104.921 263.702 105.641 263.404 106.391 263.404H134.675C135.425 263.404 136.144 263.702 136.675 264.232C137.205 264.763 137.503 265.482 137.503 266.232Z" fill="#FCCF97"/>
<path d="M84.1465 268.801C84.1465 268.801 87.9969 238.891 66.8028 237.383H36.5641C36.5641 237.383 17.9849 244.27 18.7187 260.404C59.7886 265.049 84.1465 268.801 84.1465 268.801Z" fill="#FCCF97"/>
<path style="mix-blend-mode:multiply" opacity="0.3" d="M19.634 260.71C23.3103 249.443 36.5641 244.548 36.5641 244.548H66.8028C80.4466 246.052 83.7082 258.557 84.3045 267.489C84.7342 261.079 84.8717 238.891 66.8028 237.76H36.5641C36.5641 237.76 17.9849 244.599 18.7187 260.734C19.0259 260.768 19.3289 260.675 19.634 260.71Z" fill="url(#paint9_linear_73_161)"/>
<path d="M56.9888 171.388H7.58645C3.73339 171.388 0.609863 174.511 0.609863 178.364V220.602C0.609863 224.455 3.73339 227.579 7.58645 227.579H56.9888C60.8418 227.579 63.9654 224.455 63.9654 220.602V178.364C63.9654 174.511 60.8418 171.388 56.9888 171.388Z" fill="#5D3891"/>
<path d="M60.1948 228.521C60.1948 228.871 60.0557 229.207 59.8081 229.454C59.5605 229.702 59.2247 229.841 58.8745 229.841H5.32107C4.97089 229.841 4.63505 229.702 4.38744 229.454C4.13983 229.207 4.00073 228.871 4.00073 228.521C4.00073 228.17 4.13983 227.835 4.38744 227.587C4.63505 227.339 4.97089 227.2 5.32107 227.2H58.8713C59.2215 227.2 59.5573 227.339 59.8049 227.587C60.0525 227.835 60.1916 228.17 60.1916 228.521H60.1948Z" fill="#816547"/>
<path style="mix-blend-mode:multiply" opacity="0.5" d="M63.9654 182.701C63.9654 182.901 63.8862 183.092 63.7451 183.233C63.6041 183.374 63.4128 183.453 63.2134 183.453H1.36408C1.16463 183.453 0.973357 183.374 0.832326 183.233C0.691295 183.092 0.612061 182.901 0.612061 182.701C0.612061 182.502 0.691295 182.31 0.832326 182.169C0.973357 182.028 1.16463 181.949 1.36408 181.949H63.2112C63.4107 181.949 63.6019 182.028 63.743 182.169C63.884 182.31 63.9632 182.502 63.9632 182.701H63.9654Z" fill="url(#paint10_linear_73_161)"/>
<path d="M166.542 234.177C166.542 234.827 166.284 235.451 165.824 235.911C165.364 236.37 164.74 236.629 164.09 236.629C163.44 236.629 162.817 236.37 162.357 235.911C161.897 235.451 161.639 234.827 161.639 234.177V228.898C161.639 228.248 161.897 227.624 162.357 227.164C162.817 226.705 163.44 226.446 164.09 226.446C164.74 226.446 165.364 226.705 165.824 227.164C166.284 227.624 166.542 228.248 166.542 228.898V234.177Z" fill="#FCCF97"/>
<path d="M149.571 178.943V200.722C149.948 200.797 150.657 200.802 151.105 200.802H151.298C155.273 199.671 156.551 195.128 156.551 190.059C156.551 184.397 155.605 179.735 149.571 178.943Z" fill="#FCDEB9"/>
<path d="M150.325 201.934C150.326 202.082 150.296 202.229 150.24 202.367C150.183 202.504 150.1 202.629 149.994 202.734C149.889 202.839 149.765 202.922 149.627 202.979C149.49 203.036 149.343 203.065 149.194 203.065C148.894 203.065 148.606 202.946 148.394 202.734C148.182 202.521 148.063 202.234 148.063 201.934V178.175C148.063 177.875 148.183 177.588 148.395 177.376C148.607 177.164 148.894 177.044 149.194 177.044C149.494 177.044 149.782 177.163 149.994 177.375C150.206 177.587 150.325 177.875 150.325 178.175V201.934Z" fill="white"/>
<path d="M144.669 191.941C144.669 192.591 144.411 193.214 143.951 193.674C143.491 194.134 142.868 194.392 142.217 194.392C141.567 194.392 140.944 194.134 140.484 193.674C140.024 193.214 139.766 192.591 139.766 191.941V190.055C139.766 189.405 140.024 188.781 140.484 188.322C140.944 187.862 141.567 187.604 142.217 187.604C142.539 187.604 142.858 187.667 143.156 187.79C143.453 187.913 143.723 188.094 143.951 188.322C144.179 188.549 144.359 188.819 144.482 189.117C144.606 189.414 144.669 189.733 144.669 190.055V191.941Z" fill="#816547"/>
<path d="M142.967 190.857C143.298 192.235 142.76 193.543 141.765 193.786L129.926 196.627C128.931 196.866 127.856 195.942 127.525 194.563C127.194 193.185 127.733 191.878 128.728 191.635L140.567 188.793C141.562 188.555 142.636 189.479 142.967 190.857Z" fill="#816547"/>
<path d="M134.532 177.596C136.287 177.596 137.71 174.846 137.71 171.454C137.71 168.062 136.287 165.312 134.532 165.312C132.777 165.312 131.354 168.062 131.354 171.454C131.354 174.846 132.777 177.596 134.532 177.596Z" fill="#816547"/>
<path d="M142.217 186.091C142.015 186.091 142.029 185.926 142.029 185.724V181.299C141.277 180.555 136.312 176.225 135.51 175.555C135.354 175.425 135.188 175.194 135.316 175.038C135.339 175.002 135.369 174.971 135.406 174.949C135.442 174.926 135.483 174.912 135.526 174.908C135.568 174.903 135.611 174.909 135.652 174.923C135.692 174.938 135.728 174.961 135.758 174.992C136.648 175.736 141.989 180.663 142.21 180.873C142.284 180.942 142.406 181.039 142.406 181.14V185.724C142.403 185.926 142.42 186.091 142.217 186.091Z" fill="#816547"/>
<path d="M17.4518 210.246C18.9655 213.033 23.3885 215.133 28.6118 215.133H34.6559C39.8792 215.133 44.3021 213.033 45.8159 210.246C45.872 210.12 45.8854 209.979 45.854 209.844C45.8226 209.71 45.748 209.59 45.6418 209.501C45.4162 209.319 45.0552 209.1 44.6749 209.1H18.596C18.2125 209.1 17.8515 209.314 17.6291 209.501C17.5223 209.589 17.4472 209.709 17.4152 209.844C17.3832 209.978 17.396 210.119 17.4518 210.246Z" fill="white"/>
<path d="M17.6359 197.354C19.1496 192.806 23.5726 189.492 28.7959 189.492H34.8389C40.0622 189.492 44.4852 192.806 45.9989 197.354C46.116 197.706 46.0515 197.93 45.8259 198.228C45.6003 198.527 45.2382 198.543 44.859 198.543H18.7801C18.3965 198.543 18.0356 198.528 17.8132 198.23C17.5908 197.931 17.5188 197.703 17.6359 197.354Z" fill="white"/>
<path d="M46.1156 201.746C46.1156 202.541 45.4903 203.065 44.719 203.065H19.1901C18.4187 203.065 17.7935 202.541 17.7935 201.746C17.7935 200.951 18.4187 200.426 19.1901 200.426H44.719C45.4903 200.426 46.1156 200.951 46.1156 201.746Z" fill="white"/>
<path d="M41.5382 207.313C40.2233 207.313 39.5518 206.64 38.9599 206.046C38.4227 205.509 37.9639 205.047 37.0207 205.047C36.0774 205.047 35.6155 205.51 35.0805 206.046C34.4885 206.64 33.8182 207.313 32.5021 207.313C31.1861 207.313 30.5157 206.64 29.9238 206.046C29.3866 205.509 28.9279 205.047 27.9847 205.047C27.0414 205.047 26.5795 205.51 26.0455 206.046C25.4536 206.64 24.7821 207.313 23.4672 207.313C22.1522 207.313 21.4808 206.64 20.8888 206.046C20.3517 205.509 19.8929 205.047 18.9497 205.047C18.8284 205.041 18.7139 204.989 18.6301 204.901C18.5463 204.813 18.4995 204.696 18.4995 204.575C18.4995 204.453 18.5463 204.336 18.6301 204.248C18.7139 204.161 18.8284 204.108 18.9497 204.103C20.2657 204.103 20.9361 204.775 21.528 205.369C22.0652 205.906 22.5239 206.368 23.4672 206.368C24.4104 206.368 24.8724 205.905 25.4063 205.369C25.9983 204.775 26.6697 204.103 27.9847 204.103C29.2996 204.103 29.9711 204.775 30.563 205.369C31.1002 205.906 31.56 206.368 32.5032 206.368C33.4465 206.368 33.9074 205.905 34.437 205.369C35.0289 204.775 35.6993 204.103 37.0153 204.103C38.3314 204.103 39.0007 204.775 39.5937 205.369C40.1308 205.906 40.5907 206.368 41.5339 206.368C42.4772 206.368 42.9391 205.905 43.4741 205.369C44.0661 204.775 44.7364 204.103 46.0525 204.103C46.1738 204.108 46.2882 204.161 46.372 204.248C46.4559 204.336 46.5026 204.453 46.5026 204.575C46.5026 204.696 46.4559 204.813 46.372 204.901C46.2882 204.989 46.1738 205.041 46.0525 205.047C45.1082 205.047 44.6473 205.51 44.1123 206.046C43.5246 206.64 42.8542 207.313 41.5382 207.313Z" fill="white"/>
<path d="M49.2603 219.282C49.2603 219.582 49.1411 219.869 48.9289 220.082C48.7168 220.294 48.4291 220.413 48.129 220.413H15.3195C15.0195 220.413 14.732 220.293 14.5199 220.081C14.3078 219.869 14.1885 219.582 14.1882 219.282C14.1882 218.982 14.3074 218.694 14.5196 218.482C14.7317 218.27 15.0195 218.15 15.3195 218.15H48.129C48.2776 218.15 48.4248 218.179 48.5621 218.236C48.6994 218.293 48.8242 218.376 48.9293 218.481C49.0343 218.586 49.1176 218.711 49.1744 218.849C49.2312 218.986 49.2604 219.133 49.2603 219.282Z" fill="white"/>
<path d="M256.519 285.079C272.646 283.007 293.092 277.558 301.304 262.213C303.257 258.56 305.218 251.47 300.287 248.795C295.78 246.353 289.952 248.932 286.601 252.11C284.139 254.447 282.216 259.661 279.448 261.311C275.398 263.723 273.217 257.138 273.302 254.421C273.493 248.344 280.969 245.856 285.936 244.537C294.182 242.348 303.782 240.47 303.266 231.178C302.75 221.886 293.688 216.312 286.722 220.377C280.978 223.727 281.787 230.876 277.863 235.166C274.378 238.977 273.165 232.792 273.397 229.759C273.903 223.171 279.694 218.408 283.956 213.993C288.775 209.002 294.098 198.962 288.961 192.363C286.006 188.566 278.499 187.676 274.061 188.317C252.34 191.453 266.744 219.563 262.794 222.695C258.845 225.828 255.108 220.342 255.118 211.994C255.129 203.647 253.85 197.491 245.138 200.162C236.426 202.832 234.767 224.641 244.714 233.021C254.661 241.4 244.09 250.543 241.419 244.537C239.491 240.201 237.796 228.846 232.224 227.601C222.941 225.529 223.078 244.487 225.75 248.899C229.495 255.084 237.965 256.428 242.694 261.764C244.068 263.314 247.171 267.153 245.965 269.418C244.285 272.579 239.596 269.198 237.872 267.734C234.005 264.441 228.64 253.251 223.183 260.682C216.446 269.857 227.713 283.46 256.519 285.079Z" fill="#FCDEB9"/>
<g style="mix-blend-mode:soft-light" opacity="0.8">
<path d="M258.842 283.391C258.753 283.394 258.664 283.38 258.581 283.349C258.498 283.318 258.422 283.27 258.357 283.21C258.293 283.149 258.24 283.076 258.204 282.995C258.168 282.914 258.148 282.827 258.145 282.738C258.139 282.409 257.69 249.368 272.127 210.052C272.159 209.967 272.207 209.888 272.269 209.822C272.332 209.755 272.406 209.701 272.489 209.664C272.572 209.626 272.662 209.605 272.753 209.602C272.844 209.599 272.935 209.614 273.02 209.646C273.194 209.71 273.335 209.841 273.413 210.009C273.491 210.178 273.499 210.37 273.435 210.544C259.088 249.617 259.532 282.383 259.539 282.71C259.541 282.8 259.524 282.89 259.49 282.973C259.457 283.057 259.406 283.133 259.343 283.196C259.279 283.26 259.203 283.31 259.119 283.343C259.035 283.377 258.946 283.393 258.856 283.391H258.842Z" fill="white"/>
</g>
<defs>
<linearGradient id="paint0_linear_73_161" x1="129.24" y1="-226.958" x2="66.9467" y2="117.56" gradientUnits="userSpaceOnUse">
<stop stop-color="#444B8C"/>
<stop offset="1" stop-color="#26264F"/>
</linearGradient>
<linearGradient id="paint1_linear_73_161" x1="88.116" y1="116.425" x2="78.1582" y2="171.501" gradientUnits="userSpaceOnUse">
<stop stop-color="#444B8C"/>
<stop offset="1" stop-color="#26264F"/>
</linearGradient>
<linearGradient id="paint2_linear_73_161" x1="275.966" y1="149.318" x2="48.633" y2="113.348" gradientUnits="userSpaceOnUse">
<stop stop-color="#444B8C"/>
<stop offset="1" stop-color="#26264F"/>
</linearGradient>
<linearGradient id="paint3_linear_73_161" x1="186.068" y1="140.408" x2="248.309" y2="140.408" gradientUnits="userSpaceOnUse">
<stop stop-color="#E38DDD"/>
<stop offset="1" stop-color="#9571F6"/>
</linearGradient>
<linearGradient id="paint4_linear_73_161" x1="188.823" y1="103.311" x2="250.967" y2="103.311" gradientUnits="userSpaceOnUse">
<stop stop-color="#E38DDD"/>
<stop offset="1" stop-color="#9571F6"/>
</linearGradient>
<linearGradient id="paint5_linear_73_161" x1="188.504" y1="118.931" x2="250.377" y2="118.931" gradientUnits="userSpaceOnUse">
<stop stop-color="#E38DDD"/>
<stop offset="1" stop-color="#9571F6"/>
</linearGradient>
<linearGradient id="paint6_linear_73_161" x1="189.448" y1="127.109" x2="250.751" y2="127.109" gradientUnits="userSpaceOnUse">
<stop stop-color="#E38DDD"/>
<stop offset="1" stop-color="#9571F6"/>
</linearGradient>
<linearGradient id="paint7_linear_73_161" x1="165.584" y1="220.838" x2="256.1" y2="220.838" gradientUnits="userSpaceOnUse">
<stop stop-color="#E38DDD"/>
<stop offset="1" stop-color="#9571F6"/>
</linearGradient>
<linearGradient id="paint8_linear_73_161" x1="167.646" y1="186.516" x2="260.204" y2="186.516" gradientUnits="userSpaceOnUse">
<stop stop-color="#E38DDD"/>
<stop offset="1" stop-color="#9571F6"/>
</linearGradient>
<linearGradient id="paint9_linear_73_161" x1="18.6972" y1="252.625" x2="84.4194" y2="252.625" gradientUnits="userSpaceOnUse">
<stop stop-color="#FF9085"/>
<stop offset="1" stop-color="#FB6FBB"/>
</linearGradient>
<linearGradient id="paint10_linear_73_161" x1="31.5598" y1="171.726" x2="32.4128" y2="184.587" gradientUnits="userSpaceOnUse">
<stop stop-color="#FF9085"/>
<stop offset="1" stop-color="#FB6FBB"/>
</linearGradient>
</defs>
</svg>
