<svg width="40" height="41" viewBox="0 0 40 41" fill="none" xmlns="http://www.w3.org/2000/svg">
<g clip-path="url(#clip0_73_292)">
<path d="M8.57084 20.2275V12.7132C8.59315 11.2362 8.9067 9.77806 9.49352 8.42239C10.0803 7.06673 10.9289 5.84018 11.9905 4.81302C13.0522 3.78586 14.3061 2.97828 15.6804 2.43656C17.0547 1.89484 18.5224 1.62962 19.9994 1.6561C21.4764 1.62962 22.9441 1.89484 24.3184 2.43656C25.6927 2.97828 26.9466 3.78586 28.0083 4.81302C29.0699 5.84018 29.9185 7.06673 30.5053 8.42239C31.0921 9.77806 31.4057 11.2362 31.428 12.7132V20.2275M25.7137 35.2275C27.2292 35.2275 28.6827 34.6255 29.7543 33.5539C30.8259 32.4822 31.428 31.0288 31.428 29.5132V23.0847M25.7137 35.2275C25.7137 36.1747 25.3374 37.0831 24.6676 37.7529C23.9979 38.4227 23.0895 38.799 22.1423 38.799H17.8566C16.9093 38.799 16.0009 38.4227 15.3312 37.7529C14.6614 37.0831 14.2851 36.1747 14.2851 35.2275C14.2851 34.2803 14.6614 33.3719 15.3312 32.7021C16.0009 32.0324 16.9093 31.6561 17.8566 31.6561H22.1423C23.0895 31.6561 23.9979 32.0324 24.6676 32.7021C25.3374 33.3719 25.7137 34.2803 25.7137 35.2275ZM4.28512 15.9418H7.14226C7.52115 15.9418 7.88451 16.0923 8.15242 16.3602C8.42033 16.6281 8.57084 16.9915 8.57084 17.3704V25.9418C8.57084 26.3207 8.42033 26.6841 8.15242 26.952C7.88451 27.2199 7.52115 27.3704 7.14226 27.3704H4.28512C3.52736 27.3704 2.80063 27.0694 2.26482 26.5335C1.729 25.9977 1.42798 25.271 1.42798 24.5132V18.799C1.42798 18.0412 1.729 17.3145 2.26482 16.7787C2.80063 16.2428 3.52736 15.9418 4.28512 15.9418ZM35.7137 27.3704H32.8566C32.4777 27.3704 32.1143 27.2199 31.8464 26.952C31.5785 26.6841 31.428 26.3207 31.428 25.9418V17.3704C31.428 16.9915 31.5785 16.6281 31.8464 16.3602C32.1143 16.0923 32.4777 15.9418 32.8566 15.9418H35.7137C36.4715 15.9418 37.1982 16.2428 37.734 16.7787C38.2698 17.3145 38.5708 18.0412 38.5708 18.799V24.5132C38.5708 25.271 38.2698 25.9977 37.734 26.5335C37.1982 27.0694 36.4715 27.3704 35.7137 27.3704Z" stroke="#5D3891" stroke-width="3" stroke-linecap="round" stroke-linejoin="round"/>
</g>
<defs>
<clipPath id="clip0_73_292">
<rect width="40" height="40" fill="white" transform="translate(-0.000488281 0.227539)"/>
</clipPath>
</defs>
</svg>
