<svg width="37" height="37" viewBox="0 0 37 37" fill="none" xmlns="http://www.w3.org/2000/svg">
<g clip-path="url(#clip0_73_145)">
<path d="M18.5914 3.54785C23.4077 3.54785 23.9789 3.56589 25.882 3.65308C30.7705 3.87555 33.0538 6.19502 33.2763 11.0474C33.3635 12.949 33.38 13.5202 33.38 18.3365C33.38 23.1543 33.362 23.7241 33.2763 25.6256C33.0523 30.4735 30.775 32.7975 25.882 33.02C23.9789 33.1072 23.4107 33.1252 18.5914 33.1252C13.7751 33.1252 13.2038 33.1072 11.3023 33.02C6.40176 32.796 4.1304 30.466 3.90792 25.6241C3.82073 23.7226 3.8027 23.1528 3.8027 18.335C3.8027 13.5187 3.82224 12.949 3.90792 11.0459C4.1319 6.19502 6.40928 3.87405 11.3023 3.65157C13.2053 3.56589 13.7751 3.54785 18.5914 3.54785ZM18.5914 0.296387C13.6924 0.296387 13.0791 0.317432 11.1549 0.404619C4.60391 0.705262 0.963113 4.34005 0.662469 10.8971C0.573779 12.8227 0.552734 13.436 0.552734 18.335C0.552734 23.234 0.573779 23.8488 0.660966 25.773C0.96161 32.324 4.5964 35.9648 11.1534 36.2654C13.0791 36.3526 13.6924 36.3737 18.5914 36.3737C23.4904 36.3737 24.1052 36.3526 26.0293 36.2654C32.5743 35.9648 36.2241 32.33 36.5203 25.773C36.609 23.8488 36.63 23.234 36.63 18.335C36.63 13.436 36.609 12.8227 36.5218 10.8986C36.2271 4.35358 32.5878 0.706766 26.0308 0.406122C24.1052 0.317432 23.4904 0.296387 18.5914 0.296387ZM18.5914 9.07218C13.4759 9.07218 9.32853 13.2196 9.32853 18.335C9.32853 23.4505 13.4759 27.5994 18.5914 27.5994C23.7068 27.5994 27.8542 23.452 27.8542 18.335C27.8542 13.2196 23.7068 9.07218 18.5914 9.07218ZM18.5914 24.3479C15.2708 24.3479 12.5785 21.6571 12.5785 18.335C12.5785 15.0144 15.2708 12.3221 18.5914 12.3221C21.912 12.3221 24.6042 15.0144 24.6042 18.335C24.6042 21.6571 21.912 24.3479 18.5914 24.3479ZM28.221 6.54226C27.0244 6.54226 26.0549 7.51184 26.0549 8.7069C26.0549 9.90196 27.0244 10.8715 28.221 10.8715C29.4161 10.8715 30.3841 9.90196 30.3841 8.7069C30.3841 7.51184 29.4161 6.54226 28.221 6.54226Z" fill="black"/>
</g>
<defs>
<clipPath id="clip0_73_145">
<rect width="36.0773" height="36.0773" fill="white" transform="translate(0.552734 0.296387)"/>
</clipPath>
</defs>
</svg>
