<svg width="196" height="59" viewBox="0 0 196 59" fill="none" xmlns="http://www.w3.org/2000/svg">
<g clip-path="url(#clip0_73_21)">
<path d="M15.4724 1.88281C15.9505 1.22977 16.0496 0.962527 15.8861 0.764836C15.5856 0.401098 15.4722 0.432749 14.8906 1.04243C14.2902 1.67223 13.7742 2.82302 13.7742 3.53311C13.7742 4.23499 14.2443 5.28656 14.9688 6.20528C15.7926 7.24999 15.8389 8.3537 15.1027 9.39334C14.5606 10.1583 14.5627 10.6643 15.1079 10.6619C15.5109 10.6604 16.258 9.57286 16.5261 8.59749C16.7997 7.60238 16.4731 6.5272 15.5533 5.39417C14.5889 4.20608 14.5639 3.12346 15.4724 1.88281Z" fill="#5D3891"/>
<path d="M11.8359 3.23181C12.0537 2.97963 12.2058 2.63738 12.1739 2.47154C12.0629 1.89233 11.507 2.04724 10.9857 2.80264C10.2683 3.84228 10.2882 4.86903 11.0473 5.99422C11.6875 6.94283 11.7834 7.65567 11.3488 8.23273C10.9398 8.77578 10.9766 9.29561 11.4239 9.29561C11.9542 9.29561 12.6069 8.13895 12.6069 7.19932C12.6069 6.62657 12.4519 6.22318 12.0234 5.68167C11.3288 4.80398 11.2596 3.89913 11.8359 3.23181Z" fill="#5D3891"/>
<path d="M19.239 3.16333C19.4631 2.87714 19.597 2.51361 19.5368 2.35576C19.3474 1.86017 18.8641 2.04047 18.352 2.79745C17.6593 3.82107 17.6882 4.88239 18.4387 5.99488C19.0755 6.9388 19.1656 7.62897 18.7277 8.21032C18.3206 8.75104 18.3646 9.29627 18.8153 9.29627C19.318 9.29627 19.9983 8.1484 19.9983 7.3002C19.9983 6.86791 19.787 6.30707 19.4183 5.76048C18.731 4.74194 18.6719 3.88728 19.239 3.16333Z" fill="#5D3891"/>
<path d="M31.0801 14.7812C26.9802 12.6544 23.5712 9.89416 22.1152 7.52245C21.8602 7.10694 21.5937 6.76468 21.5232 6.76176C21.2117 6.74906 20.8792 9.80097 20.8956 12.5192C20.9115 15.1119 20.9745 15.6516 21.4405 17.2033C21.7303 18.1679 22.2026 19.396 22.4903 19.9325C23.1972 21.2512 25.169 23.3148 26.4786 24.1075C27.6253 24.801 29.8554 25.628 31.132 25.8331L31.912 25.9584L31.8307 24.1224C31.7226 21.6842 31.1493 20.554 29.3345 19.2009C28.6393 18.6824 27.7378 17.9338 27.3318 17.5378C26.2775 16.5094 24.0829 13.241 24.0829 12.6995C24.0829 12.6267 24.7176 13.1721 25.493 13.9115C27.2032 15.5415 28.6921 16.7034 30.9186 18.1455C31.8433 18.7444 32.9097 19.5074 33.2881 19.8411C34.2795 20.7155 35.3192 22.3793 35.9367 24.0805C36.3818 25.3067 36.4944 25.4795 36.5969 25.0948C36.7828 24.397 36.7506 22.7635 36.5273 21.5816C35.9915 18.743 34.0531 16.3234 31.0801 14.7812Z" fill="#5D3891"/>
<path fill-rule="evenodd" clip-rule="evenodd" d="M25.7655 26.141C21.2244 23.6543 18.6733 19.145 18.3906 13.1047C18.3465 12.167 18.3214 12.1268 17.7613 12.0992C16.0351 12.0141 12.703 12.9322 10.3957 14.1291C6.81851 15.9847 3.92812 18.9147 2.15655 22.4814C1.66853 23.4638 1.35323 24.3244 0.635494 26.6325C0.575195 26.8263 3.30142 26.8762 13.8286 26.8735L27.0977 26.8706L25.7655 26.141ZM7.42985 18.5348C9.19733 16.5768 11.4861 15.1 14.0657 14.2529C16.0799 13.5915 16.1842 13.6134 16.4771 14.7608C16.6135 15.2957 16.7225 15.797 16.719 15.8749C16.7154 15.953 15.9717 16.2144 15.066 16.4558C13.0992 16.9802 10.2189 18.2987 8.50197 19.4607C7.81769 19.9238 6.57966 20.9801 5.75046 21.8079C4.92127 22.6357 4.24303 23.2554 4.24303 23.1845C4.24303 22.8874 6.58471 19.4706 7.42985 18.5348Z" fill="#5D3891"/>
<path d="M66.7775 23.8487V21.6999L57.5998 21.649C52.5519 21.6211 48.3825 21.665 48.3342 21.7467C48.2859 21.8283 48.2583 28.0486 48.273 35.5695L48.2993 49.2437L50.5362 49.361V36.8393H66.3117L66.194 34.7881H50.5361L50.5362 23.9507L66.7775 23.8487Z" fill="#5D3891"/>
<path fill-rule="evenodd" clip-rule="evenodd" d="M119.586 49.3634V21.6025H118.743C118.28 21.6025 117.842 21.6611 117.771 21.7329C117.699 21.8044 117.641 24.5427 117.641 27.818V33.7727L117.091 33.0109C113.249 27.6903 103.943 28.5571 101.045 34.5052C99.6112 37.4489 99.6167 41.758 101.058 44.6414C102.586 47.6968 105.797 49.5438 109.561 49.5326C112.507 49.5236 114.322 48.7811 116.321 46.7672L117.627 45.4516L117.738 49.2441L119.586 49.3634ZM102.871 35.2514C103.782 33.4598 105.765 31.9749 107.783 31.5743C113.471 30.4451 118.069 34.5459 117.587 40.3176C117.442 42.0515 116.865 43.5305 115.805 44.8826C115.115 45.7625 114.626 46.1445 113.43 46.7385C111.946 47.4746 111.889 47.4861 109.677 47.4861C107.564 47.4861 107.354 47.4497 106.165 46.8794C104.705 46.1784 103.726 45.3082 103.001 44.0654C101.587 41.6415 101.532 37.8886 102.871 35.2514Z" fill="#5D3891"/>
<path d="M149.888 26.9042C153.14 28.485 155.688 23.8794 152.606 21.9925C150.689 20.8188 148.291 22.208 148.326 24.4726C148.342 25.5809 148.877 26.4124 149.888 26.9042Z" fill="#5D3891"/>
<path d="M181.829 32.4002V21.6025H179.489C177.796 21.6025 177.122 21.6701 177.056 21.8466C177.005 21.9811 176.985 28.2003 177.013 35.6675L177.064 49.2441L181.829 49.3539V44.1808C181.829 38.4438 181.954 37.4771 182.867 36.104C184.414 33.7784 188.034 33.4156 189.877 35.4008C190.852 36.4497 190.97 37.3444 190.97 43.6146V49.3418H195.833L195.83 43.335C195.827 36.8568 195.691 35.5963 194.787 33.6144C194.112 32.1313 192.939 30.9385 191.505 30.2729C190.377 29.7497 190.123 29.7098 187.956 29.7142C185.211 29.7194 184.377 30.0061 182.799 31.4881L181.829 32.4002Z" fill="#5D3891"/>
<path fill-rule="evenodd" clip-rule="evenodd" d="M144.58 49.2441L144.68 21.7979H139.815V32.1968L139.046 31.4988C135.716 28.4772 129.691 28.7674 126.308 32.1123C124.571 33.8295 123.677 36.3334 123.677 39.4768C123.677 42.7927 124.617 45.2307 126.611 47.0846C127.978 48.3557 129.332 49.0476 131.261 49.4598C134.322 50.114 137.658 49.2884 139.125 47.5137L139.772 46.7321L140.107 49.2441H144.58ZM129.053 36.7419C129.671 35.5895 130.707 34.6863 131.876 34.2809C134.605 33.3343 137.598 34.4561 138.896 36.9122C139.527 38.1068 139.515 40.8744 138.874 42.1139C138.255 43.3089 137.566 44.0082 136.411 44.6137C135.09 45.3063 132.747 45.3453 131.511 44.6951C130.514 44.1706 129.464 43.1112 128.987 42.1489C128.442 41.0496 128.482 37.8073 129.053 36.7419Z" fill="#5D3891"/>
<path d="M73.6825 23.3779C73.6825 23.1825 73.5011 22.7911 73.2792 22.508C72.4504 21.4496 70.5703 22.0303 70.5703 23.3446C70.5703 24.1869 70.7475 24.5137 71.3837 24.8441C72.441 25.3931 73.6825 24.6011 73.6825 23.3779Z" fill="#5D3891"/>
<path d="M26.6303 37.8317C19.7976 44.6763 8.29668 39.3207 8.97823 29.6117L9.09494 27.9512H0.501392L0.330036 28.4034C0.0993487 29.0117 0.115492 31.3701 0.36096 32.9325C1.20221 38.2877 5.24272 44.5205 13.653 53.4366C17.3746 57.382 19.26 59.1015 19.6399 58.8971C20.1455 58.6254 27.1467 51.2551 29.2738 48.7558C33.8378 43.3923 36.4103 39.3445 37.7159 35.472C38.2968 33.7495 38.3432 33.4199 38.3604 30.8814C38.3709 29.3772 38.3136 28.1246 38.2333 28.0978C38.153 28.0708 36.1646 28.0488 33.8144 28.0488H29.5415L29.6603 29.5987C29.9009 32.7311 28.8372 35.6208 26.6303 37.8317Z" fill="#5D3891"/>
<path d="M172.481 31.3332C171.645 30.6318 170.458 30.0489 169.136 29.69C167.58 29.2669 164.835 29.186 163.255 29.5159C160.498 30.0922 158.278 31.6899 157.744 33.4813C157.359 34.7737 157.459 36.6125 157.975 37.7271C158.961 39.852 161.04 40.8695 165.54 41.429C167.848 41.7159 168.317 41.8549 168.879 42.4201C169.317 42.8605 169.261 43.9198 168.764 44.5535C168.17 45.3114 167.271 45.6306 165.726 45.6306C163.73 45.6306 161.38 44.8122 159.667 43.5201C159.301 43.2427 158.971 43.1032 158.935 43.2099C158.9 43.3167 158.384 44.1029 157.791 44.9569L156.711 46.5097L157.551 47.2522C158.649 48.2223 161.202 49.4561 162.657 49.7195C164.254 50.0084 166.892 49.9749 168.435 49.6464C172.475 48.7867 174.73 45.5854 173.86 41.9458C173.228 39.2967 171.019 37.8826 166.805 37.4295C165.709 37.3115 164.449 37.1226 164.011 37.0099C162.337 36.5801 161.663 35.1972 162.644 34.21C163.943 32.9065 167.749 33.0485 169.707 34.4734L170.488 35.0408L173.15 31.8945L172.481 31.3332Z" fill="#5D3891"/>
<path d="M95.7569 35.7104C95.0784 32.8191 93.4007 30.9429 90.6252 29.9712C89.2437 29.4873 86.5563 29.3388 85.2558 29.6744C83.7898 30.0528 82.474 30.784 81.5315 31.7441C81.0658 32.2184 80.6847 32.6798 80.6847 32.7698C80.6847 32.8594 80.614 32.9328 80.5274 32.9328C80.4411 32.9328 80.3753 32.2517 80.3814 31.4189L80.393 29.905L78.5452 29.7858V49.3419H80.4708L80.5875 36.3514L81.1284 35.2449C81.818 33.8347 82.9496 32.7 84.3483 32.0156C85.326 31.5377 85.6696 31.4765 87.3953 31.4752C89.1293 31.4736 89.4728 31.5345 90.5613 32.0368C91.9618 32.683 92.782 33.5299 93.5026 35.0726L94.0085 36.156L94.1333 49.3419H96.0509L96.0479 43.1398C96.0458 38.3527 95.9792 36.6575 95.7569 35.7104Z" fill="#5D3891"/>
<path d="M73.0018 49.2436L73.1028 29.8066H71.1541V49.3629L73.0018 49.2436Z" fill="#5D3891"/>
<path d="M153.528 49.2436L153.629 29.8066H148.762V49.3534L153.528 49.2436Z" fill="#5D3891"/>
</g>
<defs>
<clipPath id="clip0_73_21">
<rect width="195.667" height="58.3845" fill="white" transform="translate(0.166504 0.529297)"/>
</clipPath>
</defs>
</svg>
