<svg width="40" height="41" viewBox="0 0 40 41" fill="none" xmlns="http://www.w3.org/2000/svg">
<g clip-path="url(#clip0_73_274)">
<path d="M3.99951 6.89421V5.56087C3.69139 5.56106 3.39284 5.66796 3.15463 5.86339C2.91641 6.05882 2.75324 6.33073 2.69285 6.63287L3.99951 6.89421ZM35.9995 6.89421L37.3062 6.63287C37.2458 6.33073 37.0826 6.05882 36.8444 5.86339C36.6062 5.66796 36.3076 5.56106 35.9995 5.56087V6.89421ZM38.6662 20.2275V21.5609C38.8634 21.5608 39.0581 21.5169 39.2363 21.4325C39.4145 21.348 39.5717 21.2251 39.6967 21.0726C39.8217 20.9201 39.9113 20.7417 39.959 20.5504C40.0068 20.3591 40.0115 20.1596 39.9728 19.9662L38.6662 20.2275ZM1.33285 20.2275L0.0261784 19.9662C-0.0124706 20.1596 -0.00774953 20.3591 0.0400013 20.5504C0.0877522 20.7417 0.177344 20.9201 0.302322 21.0726C0.4273 21.2251 0.584553 21.348 0.762751 21.4325C0.94095 21.5169 1.13566 21.5608 1.33285 21.5609V20.2275ZM9.33285 28.2275H7.99951V29.5609H9.33285V28.2275ZM30.6662 28.2275V29.5609H31.9995V28.2275H30.6662ZM-0.000488281 40.2275H39.9995V37.5609H-0.000488281V40.2275ZM2.66618 20.2275V38.8942H5.33285V20.2275H2.66618ZM34.6662 20.2275V38.8942H37.3328V20.2275H34.6662ZM3.99951 8.22754H35.9995V5.56087H3.99951V8.22754ZM34.6928 7.15554L37.3595 20.4889L39.9728 19.9662L37.3062 6.63287L34.6928 7.15554ZM38.6662 18.8942H1.33285V21.5609H38.6662V18.8942ZM2.63951 20.4889L5.30618 7.15554L2.69285 6.63287L0.0261784 19.9662L2.63951 20.4889ZM2.66618 2.89421H37.3328V0.227539H2.66618V2.89421ZM7.99951 20.2275V28.2275H10.6662V20.2275H7.99951ZM9.33285 29.5609H30.6662V26.8942H9.33285V29.5609ZM31.9995 28.2275V20.2275H29.3328V28.2275H31.9995Z" fill="#5D3891"/>
</g>
<defs>
<clipPath id="clip0_73_274">
<rect width="40" height="40" fill="white" transform="translate(-0.000488281 0.227539)"/>
</clipPath>
</defs>
</svg>
